<?xml version="1.0" encoding="UTF-8" standalone="no"?>
<!-- Created with Inkscape (http://www.inkscape.org/) -->
<svg id="svg4757" xmlns:rdf="http://www.w3.org/1999/02/22-rdf-syntax-ns#" xmlns="http://www.w3.org/2000/svg" height="340pt" width="343pt" version="1.1" xmlns:cc="http://creativecommons.org/ns#" xmlns:dc="http://purl.org/dc/elements/1.1/" viewBox="0 0 343 340">
 <metadata id="metadata4763">
  <rdf:RDF>
   <cc:Work rdf:about="">
    <dc:format>image/svg+xml</dc:format>
    <dc:type rdf:resource="http://purl.org/dc/dcmitype/StillImage"/>
    <dc:title/>
   </cc:Work>
  </rdf:RDF>
 </metadata>
 <g id="layer1">
  <g id="g4873">
   <path id="rect4136" stroke-linejoin="round" d="m85.082 15.551h172.84c37.689 0 68.031 30.342 68.031 68.031v172.84c0 37.689-30.342 68.031-68.031 68.031h-172.84c-37.689 0-68.031-30.342-68.031-68.031v-172.84c0-37.689 30.342-68.031 68.031-68.031z" stroke-opacity=".61081" stroke="#8ff9ff" stroke-width=".037053" fill="#08a"/>
   <g id="text4140" fill="#fff" transform="scale(1.034 .96708)">
    <path id="path4149" fill="#fff" d="m264.52 267.3v-0.62149-35.735h-8.0793 8.0793v-77.064c-26.724 0-50.651 10.565-68.674 27.345 11.498 13.362 18.334 30.764 18.334 49.719h5.2826-5.2826v3.7289c-8.0793 4.9719-17.091 7.4578-26.724 7.4578-31.385 0-56.866-29.521-56.866-66.499 0-36.668 25.481-66.499 56.866-66.499 18.955 0 36.357 7.1471 49.719 18.334 16.78-18.023 27.345-41.95 27.345-68.363v-3.7289h-77.686c-66.19 0.624-119.64 54.069-119.64 120.26 0 66.499 53.759 120.57 120.26 120.57 29.21 0 55.934-10.565 77.064-27.656v-1.243z"/>
   </g>
  </g>
 </g>
</svg>
